#!OML:ASF X:\für Bonn\!DataBase\2005_08_10_Bjorn_Final\c3d\bjorn.ASF
:FULLY-SPECIFIED
:DEGREES
62
root 17.3938 19.0714 0.447456 136.651 -96.0822 -137.475
lowerback 23.5437 1.76495 1.93715
upperback 22.9801 -0.350585 1.77426
thorax 12.4471 -1.11688 0.681362
lowerneck 6.97139 -3.69258 3.56002
upperneck 4.11308 -4.67577 -4.46081
head -0.0920458 -2.29152 -1.88906
rclavicle -2.14687e-014 3.18055e-015
rhumerus 1.60574 2.93569 -79.2507
rradius 29.4383
rwrist -11.1494
rhand -14.8425 10.9596
rfingers 7.12502
rthumb 11.3167 -18.7151
lclavicle -2.14687e-014 3.18055e-015
lhumerus -9.79698 -14.8832 80.826
lradius 57.6679
lwrist -5.24518
lhand -29.392 -8.88285
lfingers 7.12502
lthumb -2.73031 21.0794
rfemur -24.1292 -10.4115 12.3507
rtibia 32.7265
rfoot -1.67999 12.5947
rtoes -1.84997
lfemur -3.96621 7.46962 -23.7843
ltibia 30.7907
lfoot -14.2794 -10.1602
ltoes -3.50781
63
root 17.349 19.0782 0.440345 137.61 -96.2568 -137.875
lowerback 23.8891 1.7574 2.23295
upperback 23.0745 -0.352892 1.93398
thorax 12.4059 -1.09872 0.695637
lowerneck 7.61417 -3.87021 3.58121
upperneck 3.26303 -4.90328 -4.33332
head -0.473736 -2.39231 -1.82561
rclavicle 1.90833e-014 1.35174e-014
rhumerus 3.07279 3.85338 -78.4355
rradius 29.0453
rwrist -11.2155
rhand -14.8169 10.8874
rfingers 7.12502
rthumb 11.3413 -18.7859
lclavicle 1.90833e-014 1.35174e-014
lhumerus -10.2894 -15.1246 81.4077
lradius 57.1941
lwrist -5.35272
lhand -29.566 -8.97495
lfingers 7.12502
lthumb -2.89832 20.9851
rfemur -24.6591 -10.5685 12.3491
rtibia 32.8804
rfoot -1.75826 12.5502
rtoes -1.71055
lfemur -4.789 7.25333 -23.906
ltibia 31.4133
lfoot -14.1232 -10.1874
ltoes -3.67172
64
root 17.3061 19.0852 0.43372 138.708 -96.4767 -138.402
lowerback 24.2562 1.72835 2.5249
upperback 23.159 -0.378184 2.08964
thorax 12.3442 -1.09173 0.711352
lowerneck 8.25084 -4.04101 3.6108
upperneck 2.48358 -5.11835 -4.18405
head -0.833899 -2.4887 -1.75832
rclavicle -3.18055e-015 8.74653e-015
rhumerus 4.54004 4.7749 -77.5758
rradius 28.7267
rwrist -11.3614
rhand -14.7894 10.7384
rfingers 7.12502
rthumb 11.3679 -18.9335
lclavicle -3.18055e-015 8.74653e-015
lhumerus -10.7507 -15.362 82.0059
lradius 56.6549
lwrist -5.49907
lhand -29.5654 -8.91591
lfingers 7.12502
lthumb -2.89772 21.0442
rfemur -25.2054 -10.7496 12.322
rtibia 33.0489
rfoot -1.86438 12.5212
rtoes -1.60433
lfemur -5.65021 7.03536 -24.0444
ltibia 32.0658
lfoot -13.9875 -10.2049
ltoes -4.14044
65
root 17.2649 19.0926 0.425943 139.993 -96.6704 -139.092
lowerback 24.6338 1.6941 2.85307
upperback 23.2235 -0.398774 2.2537
thorax 12.2563 -1.07739 0.717047
lowerneck 8.85486 -4.2297 3.58724
upperneck 1.74762 -5.36027 -4.01453
head -1.17659 -2.60079 -1.6746
rclavicle 7.95139e-015 -7.95139e-015
rhumerus 6.00234 5.58283 -76.6979
rradius 28.4468
rwrist -11.5304
rhand -14.69 10.5932
rfingers 7.12502
rthumb 11.4637 -19.0734
lclavicle 7.95139e-015 -7.95139e-015
lhumerus -11.1881 -15.6313 82.5942
lradius 56.1047
lwrist -5.75417
lhand -29.3254 -8.51216
lfingers 7.12502
lthumb -2.66594 21.4509
rfemur -25.7804 -10.8893 12.3375
rtibia 33.2101
rfoot -1.97566 12.4553
rtoes -1.38868
lfemur -6.57287 6.79375 -24.1361
ltibia 32.7603
lfoot -13.7787 -10.2842
ltoes -4.25885
66
root 17.2249 19.1003 0.417921 141.104 -96.904 -139.586
lowerback 24.9969 1.66493 3.14374
upperback 23.3022 -0.418029 2.41171
thorax 12.1936 -1.06722 0.736531
lowerneck 9.3652 -4.42096 3.61243
upperneck 1.06724 -5.60123 -3.86416
head -1.49087 -2.71395 -1.60644
rclavicle 6.36111e-015 7.95139e-015
rhumerus 7.47934 6.20363 -75.816
rradius 28.2439
rwrist -11.6042
rhand -14.46 10.3797
rfingers 7.12502
rthumb 11.6855 -19.2744
lclavicle 6.36111e-015 7.95139e-015
lhumerus -11.5136 -15.9231 83.138
lradius 55.4767
lwrist -6.11528
lhand -28.8336 -7.78608
lfingers 7.12502
lthumb -2.19101 22.1824
rfemur -26.3827 -11.0512 12.3148
rtibia 33.3804
rfoot -2.12999 12.3829
rtoes -1.4353
lfemur -7.53891 6.56953 -24.2678
ltibia 33.4903
lfoot -13.5714 -10.3265
ltoes -4.81281
67
root 17.1845 19.1079 0.409901 142.723 -97.0713 -140.569
lowerback 25.3622 1.61926 3.50054
upperback 23.3568 -0.443849 2.59777
thorax 12.1048 -1.05383 0.752426
lowerneck 9.87201 -4.60206 3.62116
upperneck 0.43274 -5.82963 -3.73861
head -1.79282 -2.82168 -1.54287
rclavicle -9.54166e-015 -7.95139e-015
rhumerus 8.92547 6.77082 -74.9087
rradius 28.0672
rwrist -11.6587
rhand -14.2249 10.2037
rfingers 7.12502
rthumb 11.9122 -19.4374
lclavicle -9.54166e-015 -7.95139e-015
lhumerus -11.8529 -16.2269 83.6989
lradius 54.8332
lwrist -6.46201
lhand -28.2077 -6.9558
lfingers 7.12502
lthumb -1.58647 23.018
rfemur -27.0116 -11.1908 12.3975
rtibia 33.548
rfoot -2.26283 12.3261
rtoes -1.23696
lfemur -8.54885 6.312 -24.2926
ltibia 34.2598
lfoot -13.3546 -10.3641
ltoes -5.14851
68
root 17.1459 19.1162 0.400704 144.762 -97.2517 -141.9
lowerback 25.6803 1.55714 3.91299
upperback 23.3856 -0.470743 2.77147
thorax 12.0102 -1.02899 0.725978
lowerneck 10.3059 -4.80192 3.72014
upperneck -0.125828 -6.07294 -3.64672
head -2.06532 -2.93763 -1.50539
rclavicle 1.11319e-014 7.95139e-015
rhumerus 10.3727 7.17085 -74.0381
rradius 27.8489
rwrist -11.6298
rhand -13.9479 10.1136
rfingers 7.12502
rthumb 12.1793 -19.5118
lclavicle 1.11319e-014 7.95139e-015
lhumerus -12.2116 -16.5878 84.2236
lradius 54.1843
lwrist -6.83912
lhand -27.588 -6.25948
lfingers 7.12502
lthumb -0.98803 23.718
rfemur -27.7297 -11.3067 12.5292
rtibia 33.7307
rfoot -2.41702 12.1759
rtoes -1.1242
lfemur -9.67953 6.04997 -24.2762
ltibia 35.0639
lfoot -13.1019 -10.4218
ltoes -5.67561
69
root 17.1073 19.1246 0.3903 146.875 -97.4595 -143.294
lowerback 25.9956 1.49145 4.32758
upperback 23.4039 -0.497587 2.97026
thorax 11.9065 -1.00626 0.726402
lowerneck 10.6712 -4.99521 3.7285
upperneck -0.626519 -6.31689 -3.51266
head -2.30313 -3.0563 -1.43831
rclavicle 7.95139e-015 3.49861e-014
rhumerus 11.7905 7.4749 -73.1518
rradius 27.6322
rwrist -11.6058
rhand -13.7308 10.1145
rfingers 7.12502
rthumb 12.3887 -19.4984
lclavicle 7.95139e-015 3.49861e-014
lhumerus -12.5201 -17.0209 84.7736
lradius 53.458
lwrist -7.0602
lhand -27.0349 -5.82798
lfingers 7.12502
lthumb -0.453835 24.1513
rfemur -28.4539 -11.4245 12.6634
rtibia 33.913
rfoot -2.61694 12.035
rtoes -1.16995
lfemur -10.8547 5.73403 -24.2473
ltibia 35.9052
lfoot -12.8267 -10.5105
ltoes -6.05255
70
root 17.0694 19.1315 0.379632 148.267 -97.7323 -143.927
lowerback 26.2768 1.44774 4.63709
upperback 23.4187 -0.506266 3.14045
thorax 11.8116 -0.984395 0.750229
lowerneck 10.9564 -5.18647 3.78498
upperneck -1.06408 -6.552 -3.37553
head -2.50832 -3.17229 -1.3797
rclavicle -2.70347e-014 -8.74653e-015
rhumerus 13.2001 7.66226 -72.2894
rradius 27.3879
rwrist -11.5925
rhand -13.5563 10.2376
rfingers 7.12502
rthumb 12.5569 -19.365
lclavicle -2.70347e-014 -8.74653e-015
lhumerus -12.8091 -17.4912 85.2969
lradius 52.7301
lwrist -7.24162
lhand -26.5167 -5.55044
lfingers 7.12502
lthumb 0.0466661 24.4293
rfemur -29.2326 -11.5613 12.6878
rtibia 34.1078
rfoot -2.79069 11.886
rtoes -1.15065
lfemur -12.093 5.43132 -24.3352
ltibia 36.7819
lfoot -12.5793 -10.6022
ltoes -6.61824
71
root 17.0313 19.1389 0.368821 149.485 -98.0471 -144.436
lowerback 26.5824 1.41254 4.93313
upperback 23.4542 -0.508635 3.32104
thorax 11.7324 -0.963666 0.792034
lowerneck 11.1977 -5.38338 3.87301
upperneck -1.5214 -6.79186 -3.25232
head -2.71591 -3.29141 -1.33016
rclavicle -3.02153e-014 -2.06736e-014
rhumerus 14.567 7.78503 -71.395
rradius 27.1929
rwrist -11.619
rhand -13.4192 10.3758
rfingers 7.12502
rthumb 12.6891 -19.2187
lclavicle -3.02153e-014 -2.06736e-014
lhumerus -13.0631 -17.9591 85.8459
lradius 51.9617
lwrist -7.46713
lhand -25.977 -5.33441
lfingers 7.12502
lthumb 0.567926 24.6446
rfemur -29.9359 -11.6545 12.6516
rtibia 34.3015
rfoot -3.01473 11.6843
rtoes -1.21335
lfemur -13.3052 5.12011 -24.4427
ltibia 37.686
lfoot -12.341 -10.6927
ltoes -7.59328
72
root 16.9948 19.1465 0.35753 150.827 -98.3608 -145.058
lowerback 26.9049 1.36055 5.25326
upperback 23.4748 -0.52054 3.48565
thorax 11.6299 -0.942639 0.805966
lowerneck 11.3798 -5.57678 3.96402
upperneck -1.91007 -7.02494 -3.10769
head -2.88914 -3.40914 -1.2752
rclavicle 7.95139e-015 -1.98785e-014
rhumerus 15.8956 7.84051 -70.5609
rradius 27.0118
rwrist -11.624
rhand -13.297 10.5809
rfingers 7.12502
rthumb 12.8069 -19.0063
lclavicle 7.95139e-015 -1.98785e-014
lhumerus -13.2877 -18.3892 86.3576
lradius 51.155
lwrist -7.74781
lhand -25.3803 -5.20251
lfingers 7.12502
lthumb 1.1443 24.7742
rfemur -30.659 -11.7536 12.6435
rtibia 34.4883
rfoot -3.23034 11.4676
rtoes -1.28997
lfemur -14.5613 4.80155 -24.5167
ltibia 38.6263
lfoot -12.0268 -10.7831
ltoes -8.38425
73
root 16.9583 19.1539 0.345839 152.215 -98.6679 -145.738
lowerback 27.2233 1.31767 5.57362
upperback 23.5206 -0.52838 3.683
thorax 11.5624 -0.924728 0.854593
lowerneck 11.4549 -5.75698 4.01061
upperneck -2.27126 -7.24916 -2.95205
head -3.03063 -3.52419 -1.21123
rclavicle 2.38542e-014 1.35174e-014
rhumerus 17.2446 7.84927 -69.6832
rradius 26.8333
rwrist -11.583
rhand -13.2249 10.7919
rfingers 7.12502
rthumb 12.8764 -18.7909
lclavicle 2.38542e-014 1.35174e-014
lhumerus -13.4512 -18.8209 86.8899
lradius 50.3093
lwrist -8.11671
lhand -24.9124 -5.19014
lfingers 7.12502
lthumb 1.59615 24.7836
rfemur -31.3591 -11.8615 12.6657
rtibia 34.6526
rfoot -3.44063 11.2694
rtoes -1.45416
lfemur -15.8417 4.47546 -24.554
ltibia 39.5977
lfoot -11.5707 -10.9073
ltoes -8.7354
74
root 16.9237 19.1617 0.334213 153.545 -99.0066 -146.355
lowerback 27.5397 1.26293 5.89422
upperback 23.5613 -0.545617 3.8653
thorax 11.491 -0.90941 0.889032
lowerneck 11.5008 -5.93558 4.04131
upperneck -2.64603 -7.47046 -2.7427
head -3.16809 -3.64036 -1.12677
rclavicle -3.18055e-015 -1.43125e-014
rhumerus 18.5365 7.82642 -68.8336
rradius 26.7251
rwrist -11.5948
rhand -13.1759 10.9439
rfingers 7.12502
rthumb 12.9237 -18.6359
lclavicle -3.18055e-015 -1.43125e-014
lhumerus -13.5749 -19.2346 87.3918
lradius 49.45
lwrist -8.61628
lhand -24.3167 -5.23613
lfingers 7.12502
lthumb 2.17145 24.7326
rfemur -32.0412 -11.9266 12.6545
rtibia 34.7926
rfoot -3.68319 10.9906
rtoes -1.62264
lfemur -17.1646 4.17466 -24.6025
ltibia 40.603
lfoot -11.1368 -11.075
ltoes -9.26314
75
root 16.8892 19.1708 0.322809 154.826 -99.3425 -146.917
lowerback 27.8314 1.20588 6.24903
upperback 23.6264 -0.563394 4.02426
thorax 11.4631 -0.887234 0.880318
lowerneck 11.5534 -6.11207 4.12543
upperneck -3.1244 -7.68176 -2.53166
head -3.34578 -3.75315 -1.04925
rclavicle 1.90833e-014 4.05521e-014
rhumerus 19.8387 7.6443 -68.0682
rradius 26.6266
rwrist -11.5602
rhand -13.1523 11.0994
rfingers 7.12502
rthumb 12.9463 -18.4789
lclavicle 1.90833e-014 4.05521e-014
lhumerus -13.6482 -19.7197 87.8307
lradius 48.6795
lwrist -8.96078
lhand -23.6015 -5.27146
lfingers 7.12502
lthumb 2.86223 24.6891
rfemur -32.7194 -11.9792 12.6494
rtibia 34.9045
rfoot -3.90462 10.6768
rtoes -1.88318
lfemur -18.5237 3.8764 -24.6377
ltibia 41.6313
lfoot -10.6302 -11.3005
ltoes -9.52973
76
root 16.8559 19.1795 0.312057 156.133 -99.6637 -147.51
lowerback 28.1489 1.14253 6.60527
upperback 23.6699 -0.580112 4.184
thorax 11.3997 -0.864858 0.872796
lowerneck 11.6256 -6.29502 4.24113
upperneck -3.61215 -7.90102 -2.38882
head -3.53722 -3.86861 -0.997139
rclavicle -1.74931e-014 -3.89618e-014
rhumerus 21.0595 7.45833 -67.3308
rradius 26.5886
rwrist -11.5121
rhand -13.1719 11.241
rfingers 7.12502
rthumb 12.9275 -18.3386
lclavicle -1.74931e-014 -3.89618e-014
lhumerus -13.7677 -20.1733 88.2487
lradius 47.9742
lwrist -9.43649
lhand -22.7387 -5.30075
lfingers 7.12502
lthumb 3.69541 24.647
rfemur -33.3889 -12.0062 12.6596
rtibia 35.0022
rfoot -4.11787 10.3459
rtoes -1.98962
lfemur -19.8945 3.60955 -24.6373
ltibia 42.6736
lfoot -10.123 -11.5643
ltoes -9.74376
